<svg width="35" height="35" viewBox="0 0 35 35" fill="none" xmlns="http://www.w3.org/2000/svg">
<path d="M29.9982 5.93491C27.6204 3.55661 24.5904 1.93699 21.2924 1.28102C17.9939 0.624798 14.5753 0.961457 11.4679 2.24849C8.36081 3.53572 5.70514 5.71524 3.83686 8.51186C1.96827 11.3082 0.971069 14.5961 0.971069 17.9594C0.971069 21.3228 1.96834 24.6109 3.83686 27.407C5.7052 30.2034 8.36081 32.3831 11.4679 33.6698C14.5749 34.9565 17.9936 35.2937 21.2924 34.6375C24.5906 33.9813 27.6208 32.3617 29.9982 29.9834C32.1175 27.8774 33.6426 25.2488 34.4188 22.3638C35.1952 19.4786 35.1952 16.4395 34.4188 13.5546C33.6426 10.6693 32.1175 8.04069 29.9982 5.93503V5.93491ZM7.82908 7.8124C10.1841 5.45427 13.2862 3.98909 16.6036 3.66836C19.9208 3.34737 23.246 4.191 26.0097 6.054L6.07102 25.9944C4.20742 23.231 3.36367 19.9053 3.68437 16.5875C4.00533 13.2697 5.47061 10.1674 7.82926 7.81222L7.82908 7.8124ZM28.1175 28.1026C25.7629 30.4615 22.6606 31.9269 19.343 32.2479C16.0258 32.5686 12.7 31.7248 9.93693 29.861L29.8586 9.92061C31.7212 12.6832 32.5659 16.0073 32.2483 19.3239C31.9307 22.6407 30.4704 25.7439 28.1174 28.1028L28.1175 28.1026Z" fill="#93A0BC"/>
</svg>
