<svg width="35" height="35" viewBox="0 0 35 35" fill="none" xmlns="http://www.w3.org/2000/svg">
<path d="M29.9973 5.93636C27.6195 3.55835 24.5896 1.93892 21.2917 1.28303C17.9933 0.626889 14.5749 0.963509 11.4675 2.25039C8.36057 3.53746 5.70498 5.71672 3.83677 8.513C1.96824 11.309 0.971069 14.5965 0.971069 17.9595C0.971069 21.3224 1.9683 24.6101 3.83677 27.4059C5.70505 30.2019 8.36057 32.3814 11.4675 33.6679C14.5745 34.9545 17.9931 35.2916 21.2917 34.6355C24.5898 33.9794 27.6199 32.36 29.9973 29.9819C32.1165 27.8762 33.6416 25.248 34.4177 22.3633C35.1941 19.4784 35.1941 16.4397 34.4177 13.5551C33.6416 10.6702 32.1165 8.0419 29.9973 5.93648V5.93636ZM7.82886 7.81363C10.1839 5.45578 13.2858 3.99078 16.6031 3.67009C19.9202 3.34914 23.2452 4.19266 26.0089 6.05544L6.07086 25.9934C4.20731 23.2304 3.36359 19.9051 3.68428 16.5877C4.00523 13.2703 5.47046 10.1684 7.82904 7.81345L7.82886 7.81363ZM28.1166 28.1014C25.7621 30.46 22.6599 31.9252 19.3424 32.2462C16.0253 32.5669 12.6996 31.7231 9.93664 29.8596L29.8576 9.92159C31.7202 12.6839 32.5649 16.0075 32.2473 19.3237C31.9297 22.6401 30.4694 25.743 28.1166 28.1016L28.1166 28.1014Z" fill="#0B00BB"/>
</svg>
