<svg width="29" height="24" viewBox="0 0 29 24" fill="none" xmlns="http://www.w3.org/2000/svg">
<path d="M14.497 18.7473C15.7192 18.7412 16.9415 18.8826 18.1334 19.1656L15.0321 23.2619L14.497 24L13.9618 23.2619L10.8727 19.1656C12.0646 18.8826 13.2808 18.7412 14.497 18.7473ZM7.15727 14.2266L9.89977 17.9108C12.9098 17.0497 16.0902 17.0497 19.1002 17.9108L21.8427 14.2512C19.5137 13.2732 17.0205 12.7688 14.497 12.7688C11.9734 12.7688 9.48018 13.2732 7.15118 14.2512L7.15727 14.2266ZM14.497 6.74731C18.2793 6.77191 21.9948 7.76832 25.2906 9.64429L22.7123 13.0702C20.134 11.877 17.3307 11.2558 14.4909 11.2558C11.6511 11.2558 8.84777 11.877 6.26945 13.0702L3.70329 9.65659C6.99916 7.78063 10.7146 6.77806 14.497 6.74731ZM24.494 9.84111C21.4171 8.18657 17.9874 7.31317 14.503 7.28242C11.0187 7.30702 7.58901 8.18657 4.51206 9.84111L6.45188 12.4182C8.99371 11.305 11.7301 10.7268 14.503 10.7268C17.2759 10.7268 20.0124 11.305 22.5542 12.4182L24.494 9.84111ZM29 4.74833L26.1359 8.55561C22.615 6.42747 18.6016 5.28344 14.497 5.24654C10.3984 5.27729 6.38499 6.40902 2.86412 8.53101L0 4.71758C4.46949 1.67914 9.37073 0 14.497 0C19.6232 0 24.5244 1.67914 28.9939 4.71758L29 4.74833ZM28.2338 4.88365C24.1717 2.12199 19.3982 0.62122 14.503 0.578165C9.60788 0.62122 4.83435 2.12199 0.772279 4.88365L3.01006 7.86058C6.5066 5.83086 10.4653 4.74218 14.503 4.71143C18.5347 4.73603 22.4934 5.8124 25.996 7.83598L28.2338 4.88365Z" fill="#0B00BB"/>
</svg>
